<mxfile host="65bd71144e">
    <diagram id="s_5-w7OtOvQbWT0AtPJo" name="Page-1">
        <mxGraphModel dx="1500" dy="640" grid="0" gridSize="10" guides="1" tooltips="1" connect="1" arrows="1" fold="1" page="0" pageScale="1" pageWidth="827" pageHeight="1169" background="none" math="0" shadow="0">
            <root>
                <mxCell id="0"/>
                <mxCell id="1" parent="0"/>
                <mxCell id="6OtTU0LUtUPTo2Eo5rB1-1" value="AWS Cloud" style="points=[[0,0],[0.25,0],[0.5,0],[0.75,0],[1,0],[1,0.25],[1,0.5],[1,0.75],[1,1],[0.75,1],[0.5,1],[0.25,1],[0,1],[0,0.75],[0,0.5],[0,0.25]];outlineConnect=0;gradientColor=none;html=1;whiteSpace=wrap;fontSize=12;fontStyle=0;container=1;pointerEvents=0;collapsible=0;recursiveResize=0;shape=mxgraph.aws4.group;grIcon=mxgraph.aws4.group_aws_cloud_alt;strokeColor=#232F3E;fillColor=none;verticalAlign=top;align=left;spacingLeft=30;fontColor=#232F3E;dashed=0;" parent="1" vertex="1">
                    <mxGeometry x="40" y="200" width="950" height="670" as="geometry"/>
                </mxCell>
                <mxCell id="6OtTU0LUtUPTo2Eo5rB1-2" value="Region (eu-central-1)" style="points=[[0,0],[0.25,0],[0.5,0],[0.75,0],[1,0],[1,0.25],[1,0.5],[1,0.75],[1,1],[0.75,1],[0.5,1],[0.25,1],[0,1],[0,0.75],[0,0.5],[0,0.25]];outlineConnect=0;gradientColor=none;html=1;whiteSpace=wrap;fontSize=12;fontStyle=0;container=1;pointerEvents=0;collapsible=0;recursiveResize=0;shape=mxgraph.aws4.group;grIcon=mxgraph.aws4.group_region;strokeColor=#147EBA;fillColor=none;verticalAlign=top;align=left;spacingLeft=30;fontColor=#147EBA;dashed=1;" parent="6OtTU0LUtUPTo2Eo5rB1-1" vertex="1">
                    <mxGeometry x="20" y="30" width="900" height="620" as="geometry"/>
                </mxCell>
                <mxCell id="6OtTU0LUtUPTo2Eo5rB1-3" value="VPC" style="points=[[0,0],[0.25,0],[0.5,0],[0.75,0],[1,0],[1,0.25],[1,0.5],[1,0.75],[1,1],[0.75,1],[0.5,1],[0.25,1],[0,1],[0,0.75],[0,0.5],[0,0.25]];outlineConnect=0;gradientColor=none;html=1;whiteSpace=wrap;fontSize=12;fontStyle=0;container=1;pointerEvents=0;collapsible=0;recursiveResize=0;shape=mxgraph.aws4.group;grIcon=mxgraph.aws4.group_vpc;strokeColor=#248814;fillColor=none;verticalAlign=top;align=left;spacingLeft=30;fontColor=#AAB7B8;dashed=0;" parent="6OtTU0LUtUPTo2Eo5rB1-2" vertex="1">
                    <mxGeometry x="30" y="40" width="730" height="560" as="geometry"/>
                </mxCell>
                <mxCell id="6OtTU0LUtUPTo2Eo5rB1-5" value="Availability Zone (eu-central-1a)" style="fillColor=none;strokeColor=#147EBA;dashed=1;verticalAlign=top;fontStyle=0;fontColor=#147EBA;fontSize=12;" parent="6OtTU0LUtUPTo2Eo5rB1-3" vertex="1">
                    <mxGeometry x="60" y="35" width="610" height="235" as="geometry"/>
                </mxCell>
                <mxCell id="6OtTU0LUtUPTo2Eo5rB1-7" value="ALB" style="sketch=0;outlineConnect=0;fontColor=#232F3E;gradientColor=none;fillColor=#4D27AA;strokeColor=none;dashed=0;verticalLabelPosition=bottom;verticalAlign=top;align=center;html=1;fontSize=12;fontStyle=0;aspect=fixed;pointerEvents=1;shape=mxgraph.aws4.application_load_balancer;" parent="6OtTU0LUtUPTo2Eo5rB1-3" vertex="1">
                    <mxGeometry x="70" y="295" width="40" height="40" as="geometry"/>
                </mxCell>
                <mxCell id="6OtTU0LUtUPTo2Eo5rB1-8" value="Public subnet (&lt;span class=&quot;pl-s&quot;&gt;10.0.1.0/24)&lt;/span&gt;" style="points=[[0,0],[0.25,0],[0.5,0],[0.75,0],[1,0],[1,0.25],[1,0.5],[1,0.75],[1,1],[0.75,1],[0.5,1],[0.25,1],[0,1],[0,0.75],[0,0.5],[0,0.25]];outlineConnect=0;gradientColor=none;html=1;whiteSpace=wrap;fontSize=12;fontStyle=0;container=1;pointerEvents=0;collapsible=0;recursiveResize=0;shape=mxgraph.aws4.group;grIcon=mxgraph.aws4.group_security_group;grStroke=0;strokeColor=#248814;fillColor=#E9F3E6;verticalAlign=top;align=left;spacingLeft=30;fontColor=#248814;dashed=0;" parent="6OtTU0LUtUPTo2Eo5rB1-3" vertex="1">
                    <mxGeometry x="80" y="155" width="200" height="100" as="geometry"/>
                </mxCell>
                <mxCell id="6OtTU0LUtUPTo2Eo5rB1-10" value="Availability Zone (eu-central-1a)" style="fillColor=none;strokeColor=#147EBA;dashed=1;verticalAlign=top;fontStyle=0;fontColor=#147EBA;fontSize=12;" parent="6OtTU0LUtUPTo2Eo5rB1-3" vertex="1">
                    <mxGeometry x="60" y="365" width="610" height="175" as="geometry"/>
                </mxCell>
                <mxCell id="6OtTU0LUtUPTo2Eo5rB1-11" value="Public subnet (&lt;span class=&quot;pl-s&quot;&gt;10.0.2.0/24)&lt;/span&gt;" style="points=[[0,0],[0.25,0],[0.5,0],[0.75,0],[1,0],[1,0.25],[1,0.5],[1,0.75],[1,1],[0.75,1],[0.5,1],[0.25,1],[0,1],[0,0.75],[0,0.5],[0,0.25]];outlineConnect=0;gradientColor=none;html=1;whiteSpace=wrap;fontSize=12;fontStyle=0;container=1;pointerEvents=0;collapsible=0;recursiveResize=0;shape=mxgraph.aws4.group;grIcon=mxgraph.aws4.group_security_group;grStroke=0;strokeColor=#248814;fillColor=#E9F3E6;verticalAlign=top;align=left;spacingLeft=30;fontColor=#248814;dashed=0;" parent="6OtTU0LUtUPTo2Eo5rB1-3" vertex="1">
                    <mxGeometry x="80" y="395" width="200" height="100" as="geometry"/>
                </mxCell>
                <mxCell id="6OtTU0LUtUPTo2Eo5rB1-36" value="Bastion" style="sketch=0;outlineConnect=0;fontColor=#232F3E;gradientColor=none;fillColor=#D45B07;strokeColor=none;dashed=0;verticalLabelPosition=bottom;verticalAlign=top;align=center;html=1;fontSize=12;fontStyle=0;aspect=fixed;pointerEvents=1;shape=mxgraph.aws4.t2_instance;" parent="6OtTU0LUtUPTo2Eo5rB1-11" vertex="1">
                    <mxGeometry x="80" y="30" width="40" height="40" as="geometry"/>
                </mxCell>
                <mxCell id="6OtTU0LUtUPTo2Eo5rB1-12" value="Private subnet (&lt;span class=&quot;pl-s&quot;&gt;10.0.101.0/24)&lt;/span&gt;" style="points=[[0,0],[0.25,0],[0.5,0],[0.75,0],[1,0],[1,0.25],[1,0.5],[1,0.75],[1,1],[0.75,1],[0.5,1],[0.25,1],[0,1],[0,0.75],[0,0.5],[0,0.25]];outlineConnect=0;gradientColor=none;html=1;whiteSpace=wrap;fontSize=12;fontStyle=0;container=1;pointerEvents=0;collapsible=0;recursiveResize=0;shape=mxgraph.aws4.group;grIcon=mxgraph.aws4.group_security_group;grStroke=0;strokeColor=#147EBA;fillColor=#E6F2F8;verticalAlign=top;align=left;spacingLeft=30;fontColor=#147EBA;dashed=0;" parent="6OtTU0LUtUPTo2Eo5rB1-3" vertex="1">
                    <mxGeometry x="330" y="155" width="320" height="100" as="geometry"/>
                </mxCell>
                <mxCell id="6OtTU0LUtUPTo2Eo5rB1-13" value="Private subnet (&lt;span class=&quot;pl-s&quot;&gt;10.0.102.0/24)&lt;/span&gt;" style="points=[[0,0],[0.25,0],[0.5,0],[0.75,0],[1,0],[1,0.25],[1,0.5],[1,0.75],[1,1],[0.75,1],[0.5,1],[0.25,1],[0,1],[0,0.75],[0,0.5],[0,0.25]];outlineConnect=0;gradientColor=none;html=1;whiteSpace=wrap;fontSize=12;fontStyle=0;container=1;pointerEvents=0;collapsible=0;recursiveResize=0;shape=mxgraph.aws4.group;grIcon=mxgraph.aws4.group_security_group;grStroke=0;strokeColor=#147EBA;fillColor=#E6F2F8;verticalAlign=top;align=left;spacingLeft=30;fontColor=#147EBA;dashed=0;" parent="6OtTU0LUtUPTo2Eo5rB1-3" vertex="1">
                    <mxGeometry x="330" y="395" width="320" height="100" as="geometry"/>
                </mxCell>
                <mxCell id="6OtTU0LUtUPTo2Eo5rB1-34" value="Auto Scaling group&lt;br&gt;(blue)" style="points=[[0,0],[0.25,0],[0.5,0],[0.75,0],[1,0],[1,0.25],[1,0.5],[1,0.75],[1,1],[0.75,1],[0.5,1],[0.25,1],[0,1],[0,0.75],[0,0.5],[0,0.25]];outlineConnect=0;gradientColor=none;html=1;whiteSpace=wrap;fontSize=12;fontStyle=0;container=1;pointerEvents=0;collapsible=0;recursiveResize=0;shape=mxgraph.aws4.groupCenter;grIcon=mxgraph.aws4.group_auto_scaling_group;grStroke=1;strokeColor=#D86613;fillColor=none;verticalAlign=top;align=center;fontColor=#D86613;dashed=1;spacingTop=25;" parent="6OtTU0LUtUPTo2Eo5rB1-3" vertex="1">
                    <mxGeometry x="370" y="85" width="110" height="420" as="geometry"/>
                </mxCell>
                <mxCell id="6OtTU0LUtUPTo2Eo5rB1-15" value="EC2 (blue)" style="sketch=0;outlineConnect=0;fontColor=#232F3E;gradientColor=none;fillColor=#D45B07;strokeColor=none;dashed=0;verticalLabelPosition=bottom;verticalAlign=top;align=center;html=1;fontSize=12;fontStyle=0;aspect=fixed;pointerEvents=1;shape=mxgraph.aws4.t2_instance;" parent="6OtTU0LUtUPTo2Eo5rB1-34" vertex="1">
                    <mxGeometry x="35" y="100" width="40" height="40" as="geometry"/>
                </mxCell>
                <mxCell id="6OtTU0LUtUPTo2Eo5rB1-16" value="EC2 (blue)" style="sketch=0;outlineConnect=0;fontColor=#232F3E;gradientColor=none;fillColor=#D45B07;strokeColor=none;dashed=0;verticalLabelPosition=bottom;verticalAlign=top;align=center;html=1;fontSize=12;fontStyle=0;aspect=fixed;pointerEvents=1;shape=mxgraph.aws4.t2_instance;" parent="6OtTU0LUtUPTo2Eo5rB1-34" vertex="1">
                    <mxGeometry x="35" y="340" width="40" height="40" as="geometry"/>
                </mxCell>
                <mxCell id="6OtTU0LUtUPTo2Eo5rB1-35" value="Auto Scaling group&lt;br&gt;(green)" style="points=[[0,0],[0.25,0],[0.5,0],[0.75,0],[1,0],[1,0.25],[1,0.5],[1,0.75],[1,1],[0.75,1],[0.5,1],[0.25,1],[0,1],[0,0.75],[0,0.5],[0,0.25]];outlineConnect=0;gradientColor=none;html=1;whiteSpace=wrap;fontSize=12;fontStyle=0;container=1;pointerEvents=0;collapsible=0;recursiveResize=0;shape=mxgraph.aws4.groupCenter;grIcon=mxgraph.aws4.group_auto_scaling_group;grStroke=1;strokeColor=#D86613;fillColor=none;verticalAlign=top;align=center;fontColor=#D86613;dashed=1;spacingTop=25;" parent="6OtTU0LUtUPTo2Eo5rB1-3" vertex="1">
                    <mxGeometry x="520" y="85" width="110" height="420" as="geometry"/>
                </mxCell>
                <mxCell id="6OtTU0LUtUPTo2Eo5rB1-17" value="EC2 (green)" style="sketch=0;outlineConnect=0;fontColor=#232F3E;gradientColor=none;fillColor=#D45B07;strokeColor=none;dashed=0;verticalLabelPosition=bottom;verticalAlign=top;align=center;html=1;fontSize=12;fontStyle=0;aspect=fixed;pointerEvents=1;shape=mxgraph.aws4.t2_instance;" parent="6OtTU0LUtUPTo2Eo5rB1-35" vertex="1">
                    <mxGeometry x="35" y="100" width="40" height="40" as="geometry"/>
                </mxCell>
                <mxCell id="6OtTU0LUtUPTo2Eo5rB1-22" value="EC2 (green)" style="sketch=0;outlineConnect=0;fontColor=#232F3E;gradientColor=none;fillColor=#D45B07;strokeColor=none;dashed=0;verticalLabelPosition=bottom;verticalAlign=top;align=center;html=1;fontSize=12;fontStyle=0;aspect=fixed;pointerEvents=1;shape=mxgraph.aws4.t2_instance;" parent="6OtTU0LUtUPTo2Eo5rB1-35" vertex="1">
                    <mxGeometry x="35" y="340" width="40" height="40" as="geometry"/>
                </mxCell>
                <mxCell id="6OtTU0LUtUPTo2Eo5rB1-4" value="&lt;font style=&quot;font-size: 12px;&quot;&gt;Internet Gateway&lt;/font&gt;" style="sketch=0;outlineConnect=0;fontColor=#232F3E;gradientColor=none;fillColor=#4D27AA;strokeColor=none;dashed=0;verticalLabelPosition=bottom;verticalAlign=top;align=center;html=1;fontSize=12;fontStyle=0;aspect=fixed;pointerEvents=1;shape=mxgraph.aws4.internet_gateway;" parent="6OtTU0LUtUPTo2Eo5rB1-3" vertex="1">
                    <mxGeometry x="-20" y="295" width="40" height="40" as="geometry"/>
                </mxCell>
                <mxCell id="6OtTU0LUtUPTo2Eo5rB1-37" value="" style="endArrow=classic;html=1;rounded=0;fontSize=12;" parent="6OtTU0LUtUPTo2Eo5rB1-3" source="6OtTU0LUtUPTo2Eo5rB1-4" target="6OtTU0LUtUPTo2Eo5rB1-7" edge="1">
                    <mxGeometry width="50" height="50" relative="1" as="geometry">
                        <mxPoint x="320" y="345" as="sourcePoint"/>
                        <mxPoint x="370" y="295" as="targetPoint"/>
                    </mxGeometry>
                </mxCell>
                <mxCell id="6OtTU0LUtUPTo2Eo5rB1-40" value="" style="endArrow=classic;html=1;rounded=1;fontSize=12;entryX=0.5;entryY=0;entryDx=0;entryDy=0;strokeWidth=1;" parent="6OtTU0LUtUPTo2Eo5rB1-3" source="6OtTU0LUtUPTo2Eo5rB1-7" target="6OtTU0LUtUPTo2Eo5rB1-34" edge="1">
                    <mxGeometry width="50" height="50" relative="1" as="geometry">
                        <mxPoint x="200" y="355" as="sourcePoint"/>
                        <mxPoint x="250" y="305" as="targetPoint"/>
                        <Array as="points">
                            <mxPoint x="300" y="315"/>
                            <mxPoint x="300" y="65"/>
                            <mxPoint x="425" y="65"/>
                        </Array>
                    </mxGeometry>
                </mxCell>
                <mxCell id="6OtTU0LUtUPTo2Eo5rB1-42" value="" style="endArrow=classic;html=1;rounded=1;fontSize=12;entryX=0.5;entryY=1;entryDx=0;entryDy=0;strokeWidth=1;" parent="6OtTU0LUtUPTo2Eo5rB1-3" source="6OtTU0LUtUPTo2Eo5rB1-7" target="6OtTU0LUtUPTo2Eo5rB1-35" edge="1">
                    <mxGeometry width="50" height="50" relative="1" as="geometry">
                        <mxPoint x="121.96000000000004" y="309.32035635553734" as="sourcePoint"/>
                        <mxPoint x="435" y="95" as="targetPoint"/>
                        <Array as="points">
                            <mxPoint x="300" y="315"/>
                            <mxPoint x="300" y="530"/>
                            <mxPoint x="575" y="530"/>
                        </Array>
                    </mxGeometry>
                </mxCell>
                <mxCell id="6OtTU0LUtUPTo2Eo5rB1-31" value="VPC Endpoints" style="sketch=0;outlineConnect=0;fontColor=#232F3E;gradientColor=none;fillColor=#4D27AA;strokeColor=none;dashed=0;verticalLabelPosition=bottom;verticalAlign=top;align=center;html=1;fontSize=12;fontStyle=0;aspect=fixed;pointerEvents=1;shape=mxgraph.aws4.endpoints;" parent="6OtTU0LUtUPTo2Eo5rB1-3" vertex="1">
                    <mxGeometry x="710" y="295" width="40" height="40" as="geometry"/>
                </mxCell>
                <mxCell id="6OtTU0LUtUPTo2Eo5rB1-43" value="" style="endArrow=classic;html=1;rounded=1;fontSize=12;strokeWidth=1;exitX=0.967;exitY=0.717;exitDx=0;exitDy=0;exitPerimeter=0;" parent="6OtTU0LUtUPTo2Eo5rB1-3" source="6OtTU0LUtUPTo2Eo5rB1-5" target="6OtTU0LUtUPTo2Eo5rB1-31" edge="1">
                    <mxGeometry width="50" height="50" relative="1" as="geometry">
                        <mxPoint x="460" y="-30" as="sourcePoint"/>
                        <mxPoint x="510" y="-80" as="targetPoint"/>
                        <Array as="points">
                            <mxPoint x="680" y="203"/>
                            <mxPoint x="680" y="315"/>
                        </Array>
                    </mxGeometry>
                </mxCell>
                <mxCell id="6OtTU0LUtUPTo2Eo5rB1-44" value="" style="endArrow=classic;html=1;rounded=1;fontSize=12;strokeWidth=1;" parent="6OtTU0LUtUPTo2Eo5rB1-3" target="6OtTU0LUtUPTo2Eo5rB1-31" edge="1">
                    <mxGeometry width="50" height="50" relative="1" as="geometry">
                        <mxPoint x="650" y="430" as="sourcePoint"/>
                        <mxPoint x="720" y="325" as="targetPoint"/>
                        <Array as="points">
                            <mxPoint x="680" y="430"/>
                            <mxPoint x="680" y="315"/>
                            <mxPoint x="700" y="315"/>
                        </Array>
                    </mxGeometry>
                </mxCell>
                <mxCell id="6OtTU0LUtUPTo2Eo5rB1-48" value="" style="endArrow=classic;html=1;rounded=1;fontSize=12;strokeWidth=1;jumpStyle=arc;entryX=0.475;entryY=0.935;entryDx=0;entryDy=0;entryPerimeter=0;fillColor=#f8cecc;strokeColor=#b85450;dashed=1;dashPattern=1 1;" parent="6OtTU0LUtUPTo2Eo5rB1-3" edge="1">
                    <mxGeometry width="50" height="50" relative="1" as="geometry">
                        <mxPoint x="180" y="430" as="sourcePoint"/>
                        <mxPoint x="349.7499999999999" y="255.04999999999995" as="targetPoint"/>
                        <Array as="points">
                            <mxPoint x="180" y="335"/>
                            <mxPoint x="350" y="335"/>
                        </Array>
                    </mxGeometry>
                </mxCell>
                <mxCell id="6OtTU0LUtUPTo2Eo5rB1-49" value="SSH" style="edgeLabel;html=1;align=center;verticalAlign=middle;resizable=0;points=[];fontSize=10;" parent="6OtTU0LUtUPTo2Eo5rB1-48" vertex="1" connectable="0">
                    <mxGeometry x="-0.0931" relative="1" as="geometry">
                        <mxPoint as="offset"/>
                    </mxGeometry>
                </mxCell>
                <mxCell id="6OtTU0LUtUPTo2Eo5rB1-50" value="" style="endArrow=classic;html=1;rounded=1;fontSize=12;strokeWidth=1;jumpStyle=arc;fillColor=#f8cecc;strokeColor=#b85450;dashed=1;dashPattern=1 1;" parent="6OtTU0LUtUPTo2Eo5rB1-3" source="6OtTU0LUtUPTo2Eo5rB1-36" target="6OtTU0LUtUPTo2Eo5rB1-13" edge="1">
                    <mxGeometry width="50" height="50" relative="1" as="geometry">
                        <mxPoint x="190" y="440" as="sourcePoint"/>
                        <mxPoint x="300" y="460" as="targetPoint"/>
                        <Array as="points">
                            <mxPoint x="240" y="445"/>
                            <mxPoint x="280" y="445"/>
                        </Array>
                    </mxGeometry>
                </mxCell>
                <mxCell id="6OtTU0LUtUPTo2Eo5rB1-51" value="SSH" style="edgeLabel;html=1;align=center;verticalAlign=middle;resizable=0;points=[];fontSize=10;labelBackgroundColor=none;" parent="6OtTU0LUtUPTo2Eo5rB1-50" vertex="1" connectable="0">
                    <mxGeometry x="-0.0931" relative="1" as="geometry">
                        <mxPoint y="8" as="offset"/>
                    </mxGeometry>
                </mxCell>
                <mxCell id="6OtTU0LUtUPTo2Eo5rB1-27" value="ECR" style="sketch=0;points=[[0,0,0],[0.25,0,0],[0.5,0,0],[0.75,0,0],[1,0,0],[0,1,0],[0.25,1,0],[0.5,1,0],[0.75,1,0],[1,1,0],[0,0.25,0],[0,0.5,0],[0,0.75,0],[1,0.25,0],[1,0.5,0],[1,0.75,0]];outlineConnect=0;fontColor=#232F3E;gradientColor=#F78E04;gradientDirection=north;fillColor=#D05C17;strokeColor=#ffffff;dashed=0;verticalLabelPosition=bottom;verticalAlign=top;align=center;html=1;fontSize=12;fontStyle=0;aspect=fixed;shape=mxgraph.aws4.resourceIcon;resIcon=mxgraph.aws4.ecr;" parent="6OtTU0LUtUPTo2Eo5rB1-2" vertex="1">
                    <mxGeometry x="840" y="280" width="40" height="40" as="geometry"/>
                </mxCell>
                <mxCell id="6OtTU0LUtUPTo2Eo5rB1-30" value="S3" style="sketch=0;points=[[0,0,0],[0.25,0,0],[0.5,0,0],[0.75,0,0],[1,0,0],[0,1,0],[0.25,1,0],[0.5,1,0],[0.75,1,0],[1,1,0],[0,0.25,0],[0,0.5,0],[0,0.75,0],[1,0.25,0],[1,0.5,0],[1,0.75,0]];outlineConnect=0;fontColor=#232F3E;gradientColor=#60A337;gradientDirection=north;fillColor=#277116;strokeColor=#ffffff;dashed=0;verticalLabelPosition=bottom;verticalAlign=top;align=center;html=1;fontSize=12;fontStyle=0;aspect=fixed;shape=mxgraph.aws4.resourceIcon;resIcon=mxgraph.aws4.s3;" parent="6OtTU0LUtUPTo2Eo5rB1-2" vertex="1">
                    <mxGeometry x="840" y="380" width="40" height="40" as="geometry"/>
                </mxCell>
                <mxCell id="6OtTU0LUtUPTo2Eo5rB1-46" value="" style="endArrow=classic;html=1;rounded=1;fontSize=12;strokeWidth=1;exitX=0;exitY=0.5;exitDx=0;exitDy=0;exitPerimeter=0;" parent="6OtTU0LUtUPTo2Eo5rB1-2" source="6OtTU0LUtUPTo2Eo5rB1-27" target="6OtTU0LUtUPTo2Eo5rB1-31" edge="1">
                    <mxGeometry width="50" height="50" relative="1" as="geometry">
                        <mxPoint x="430" y="80" as="sourcePoint"/>
                        <mxPoint x="480" y="30" as="targetPoint"/>
                    </mxGeometry>
                </mxCell>
                <mxCell id="6OtTU0LUtUPTo2Eo5rB1-47" value="" style="endArrow=classic;html=1;rounded=1;fontSize=12;strokeWidth=1;exitX=0;exitY=0.5;exitDx=0;exitDy=0;exitPerimeter=0;" parent="6OtTU0LUtUPTo2Eo5rB1-2" source="6OtTU0LUtUPTo2Eo5rB1-30" target="6OtTU0LUtUPTo2Eo5rB1-31" edge="1">
                    <mxGeometry width="50" height="50" relative="1" as="geometry">
                        <mxPoint x="850" y="310" as="sourcePoint"/>
                        <mxPoint x="790" y="351.25" as="targetPoint"/>
                    </mxGeometry>
                </mxCell>
                <mxCell id="6OtTU0LUtUPTo2Eo5rB1-54" value="" style="endArrow=classic;html=1;rounded=0;fontSize=12;fillColor=#f8cecc;strokeColor=#b85450;dashed=1;dashPattern=1 1;" parent="6OtTU0LUtUPTo2Eo5rB1-1" target="6OtTU0LUtUPTo2Eo5rB1-36" edge="1">
                    <mxGeometry width="50" height="50" relative="1" as="geometry">
                        <mxPoint x="-60" y="514.59" as="sourcePoint"/>
                        <mxPoint x="30" y="515.4081818181819" as="targetPoint"/>
                    </mxGeometry>
                </mxCell>
                <mxCell id="6OtTU0LUtUPTo2Eo5rB1-55" value="SSH" style="edgeLabel;html=1;align=center;verticalAlign=middle;resizable=0;points=[];fontSize=10;" parent="6OtTU0LUtUPTo2Eo5rB1-54" vertex="1" connectable="0">
                    <mxGeometry x="-0.0942" relative="1" as="geometry">
                        <mxPoint x="-82" as="offset"/>
                    </mxGeometry>
                </mxCell>
                <mxCell id="6OtTU0LUtUPTo2Eo5rB1-52" value="" style="endArrow=classic;html=1;rounded=0;fontSize=12;" parent="1" target="6OtTU0LUtUPTo2Eo5rB1-4" edge="1">
                    <mxGeometry width="50" height="50" relative="1" as="geometry">
                        <mxPoint x="-20" y="584" as="sourcePoint"/>
                        <mxPoint x="30" y="584" as="targetPoint"/>
                    </mxGeometry>
                </mxCell>
                <mxCell id="6OtTU0LUtUPTo2Eo5rB1-53" value="HTTP" style="edgeLabel;html=1;align=center;verticalAlign=middle;resizable=0;points=[];fontSize=10;" parent="6OtTU0LUtUPTo2Eo5rB1-52" vertex="1" connectable="0">
                    <mxGeometry x="-0.0942" relative="1" as="geometry">
                        <mxPoint as="offset"/>
                    </mxGeometry>
                </mxCell>
            </root>
        </mxGraphModel>
    </diagram>
</mxfile>